<svg xmlns="http://www.w3.org/2000/svg" version="1.1" xmlns:xlink="http://www.w3.org/1999/xlink" xmlns:svgjs="http://svgjs.dev/svgjs" width="2000" height="3383" viewBox="0 0 2000 3383"><g transform="matrix(1,0,0,1,-1.595619727655162,1.3721648237960835)"><svg viewBox="0 0 146 247" data-background-color="#050816" preserveAspectRatio="xMidYMid meet" height="3383" width="2000" xmlns="http://www.w3.org/2000/svg" xmlns:xlink="http://www.w3.org/1999/xlink"><g id="tight-bounds" transform="matrix(1,0,0,1,0.11659714048175829,-0.09997365579206985)"><svg viewBox="0 0 145.7669226193993 247.2" height="247.2" width="145.7669226193993"><g><svg viewBox="0 0 145.7669226193993 247.2" height="247.2" width="145.7669226193993"><g><svg viewBox="0 0 145.7669226193993 247.2" height="247.2" width="145.7669226193993"><g><svg viewBox="0 0 145.7669226193993 247.2" height="247.2" width="145.7669226193993"><g><svg viewBox="0 0 145.7669226193993 247.2" height="247.2" width="145.7669226193993"><path d="M145.426 53.02C144.74 27.36 142.787 20.227 142.787 20.227 136.791-6.202 129.308-0.506 122.585 3.292 110.716 3.446 98.895 9.091 87.053 12.119 62.198 12.581 37.131 4.986 12.399 23.717 10.076 29.464-2.41 24.846 0.413 56.304 1.153 69.39 3.853 83.913 3.771 95.922 4.141 98.026 4.655 93.202 4.874 96.23 5.642 104.39 6.896 100.541 7.924 105.365 6.492 118.246 7.52 128.971 8.5 140.21 6.773 143.135 4.559 141.749 3.566 151.449 3.463 158.479 2.908 157.145 2.298 156.837 1.852 156.632 0.955 157.402 1.105 159.608 1.619 167.152-0.587 171.514 0.797 178.904-0.156 186.91 1.455 193.838 1.236 202.511 1.208 204.255 1.359 205.744 1.599 206.154 2.661 208.361 1.112 212.672 1.277 217.342 12.173 249.262 23.994 227.195 35.157 241.872 38.056 231.608 35.877 245.516 37.035 243.36 37.939 240.846 38.597 251.263 39.618 245.362 39.776 243.668 39.536 239.665 40.098 240.435 40.393 240.846 40.653 240.743 40.694 238.382 40.756 234.841 40.214 237.048 40.07 235.201 41.626 225.861 41.242 248.081 42.702 247.158 42.633 244.438 42.209 240.538 43.079 241.051 43.942 237.151 43.97 233.918 44.737 242.693 44.765 244.592 44.902 245.926 45.121 246.85 47.519 237.305 49.904 250.237 52.419 245.926 53.961 241.205 55.441 248.492 57.004 246.696 57.552 245.259 58.107 242.693 58.635 247.004 65.097 247.928 71.984 244.079 78.11 247.158 94.482 241.41 111.977 249.518 129.239 241.923 133.31 238.998 137.538 234.841 141.506 231.506 141.506 231.506 144.72 222.371 144.72 181.316S145.405 145.393 145.508 112.703C145.611 80.013 146.09 78.679 145.405 53.02Z" opacity="1" fill="#ee3e38" data-fill-palette-color="tertiary"></path><g transform="matrix(1,0,0,1,55.76832,26.230666666666668)"><svg width="34.23028261939931" viewBox="3.5 -33.85 5.949999999999999 33.85" height="194.73866666666666" data-palette-color="#ffffff"><path d="M3.5 0L3.5-33.85 9.45-33.85 9.45 0 3.5 0Z" opacity="1" transform="matrix(1,0,0,1,0,0)" fill="#ffffff" class="undefined-text-0" data-fill-palette-color="quaternary" id="text-0"></path></svg></g></svg></g></svg></g></svg></g><g></g></svg></g><defs></defs></svg><rect width="145.7669226193993" height="247.2" fill="none" stroke="none" visibility="hidden"></rect></g></svg></g></svg>